<svg width="534" height="70" viewBox="0 0 534 70" fill="none" xmlns="http://www.w3.org/2000/svg">
<path d="M309.27 67.3946C296.44 67.3946 288.724 60.2362 288.167 49.0803H296.905C297.277 56.7035 302.204 60.1432 309.27 60.1432C316.428 60.1432 320.983 56.6106 320.983 50.9396C320.983 46.4773 318.101 43.5954 311.129 43.5954H305.644C295.232 43.5954 289.096 37.9244 289.096 29.4646C289.096 20.3539 296.254 13.4745 308.619 13.4745C321.355 13.4745 328.235 20.7258 328.792 31.4169H320.054C319.682 24.6304 315.87 20.7258 308.619 20.7258C302.018 20.7258 297.835 23.9796 297.835 29.0927C297.835 33.648 301.089 35.7862 306.295 35.7862H312.338C323.865 35.7862 329.722 42.3868 329.722 50.7537C329.722 60.4221 321.913 67.3946 309.27 67.3946Z" fill="white"/>
<path d="M241.151 66.0001V14.869H249.332V24.4444H249.518C252.586 17.6579 258.536 13.4745 266.438 13.4745C277.222 13.4745 283.73 21.1906 283.73 35.3214V66.0001H275.363V36.1581C275.363 25.0952 270.529 20.9117 263.835 20.9117C256.584 20.9117 249.518 25.9319 249.518 38.2963V66.0001H241.151Z" fill="white"/>
<path d="M223.587 55.402C220.333 63.583 213.639 67.3946 205.551 67.3946C195.79 67.3946 188.074 61.8166 188.074 51.2185C188.074 39.6908 197.37 35.2284 207.504 35.2284H215.592C220.705 35.2284 223.308 33.0902 223.308 29.0927C223.308 23.5148 218.195 20.7258 211.78 20.7258C204.25 20.7258 198.951 24.5374 198.393 31.4169H190.026C190.77 20.5399 197.928 13.4745 211.78 13.4745C225.911 13.4745 231.675 20.8188 231.675 30.8591V55.309C231.675 57.7261 232.511 58.5628 234.928 58.5628H237.253V66.0001H231.768C226.84 66.0001 223.773 63.0252 223.773 58.3769V55.402H223.587ZM196.812 51.2185C196.812 55.9598 199.787 60.1432 207.132 60.1432C215.592 60.1432 223.308 54.5653 223.308 42.5727V36.8089H223.122C221.355 40.5275 218.102 42.3868 211.873 42.3868H207.689C199.694 42.3868 196.812 46.5703 196.812 51.2185Z" fill="white"/>
<path d="M111.09 66.0001V14.869H119.271V23.8866H119.457C121.874 18.7735 126.802 13.4745 135.075 13.4745C142.699 13.4745 148.184 17.9368 150.322 25.2811H150.508C153.111 18.4017 158.503 13.4745 166.777 13.4745C177.189 13.4745 183.418 21.3766 183.418 33.648V66.0001H175.051V34.4847C175.051 25.0022 170.681 20.9117 164.546 20.9117C157.48 20.9117 151.437 26.3967 151.437 36.9948V66.0001H143.071V34.4847C143.071 25.0022 138.701 20.9117 132.565 20.9117C125.5 20.9117 119.457 26.4897 119.457 37.0878V66.0001H111.09Z" fill="white"/>
<path d="M76.9218 67.3945C65.8589 67.3945 59.2583 59.6783 59.2583 45.5476V14.8689H67.6252V44.7109C67.6252 55.9597 72.4594 59.9572 79.1529 59.9572C86.6832 59.9572 93.4697 54.9371 93.4697 42.5727V14.8689H101.837V66H93.6556V56.4245H93.4697C90.4948 63.6759 84.545 67.3945 76.9218 67.3945Z" fill="white"/>
<path d="M0.824951 66V0.924072H9.47076V29.4645H42.4736V0.924072H51.1194V66H42.4736V37.1807H9.47076V66H0.824951Z" fill="white"/>
<circle cx="373.272" cy="36.661" r="31.3994" stroke="white" stroke-width="2.49015"/>
<path d="M371.527 22.6954H374.193C374.151 23.5207 374.077 24.6104 373.971 25.9646C373.865 27.3189 373.664 28.853 373.368 30.5669C373.093 32.2597 372.659 34.0265 372.067 35.8674C371.474 37.7084 370.681 39.5281 369.686 41.3267C368.692 43.1253 367.422 44.8286 365.877 46.4368C364.354 48.0449 362.492 49.4415 360.291 50.6264C360.101 50.3302 359.826 50.0128 359.466 49.6743C359.106 49.3357 358.736 49.0395 358.355 48.7855C360.534 47.6641 362.365 46.3522 363.846 44.8498C365.327 43.3475 366.544 41.7393 367.496 40.0254C368.448 38.3114 369.189 36.5869 369.718 34.8518C370.247 33.0955 370.638 31.4239 370.892 29.8369C371.146 28.2499 371.305 26.8428 371.368 25.6155C371.453 24.3671 371.506 23.3937 371.527 22.6954ZM374.066 23.3302C374.087 23.6899 374.13 24.3142 374.193 25.2029C374.278 26.0704 374.426 27.1284 374.637 28.3769C374.849 29.6253 375.156 30.9795 375.558 32.4395C375.96 33.8996 376.5 35.4019 377.177 36.9466C377.854 38.4913 378.69 39.9936 379.684 41.4536C380.679 42.9137 381.874 44.2679 383.271 45.5163C384.667 46.7436 386.307 47.7804 388.19 48.6268C387.831 48.9019 387.482 49.2193 387.143 49.579C386.826 49.9599 386.561 50.309 386.349 50.6264C384.445 49.7166 382.763 48.6057 381.303 47.2938C379.864 45.9607 378.626 44.5218 377.589 42.9772C376.574 41.4113 375.717 39.8138 375.018 38.1845C374.341 36.5551 373.791 34.9682 373.368 33.4235C372.945 31.8577 372.627 30.4082 372.416 29.0751C372.204 27.7209 372.056 26.5677 371.971 25.6155C371.887 24.6421 371.834 23.9439 371.813 23.5207L374.066 23.3302Z" fill="white"/>
<circle cx="500.81" cy="36.661" r="31.3994" stroke="white" stroke-width="2.49015"/>
<path d="M518.241 36.661C518.241 34.648 516.262 33.0162 512.294 33.0162C511.125 33.0162 509.65 33.2579 508.15 33.619C509.467 32.8132 510.68 31.9407 511.506 31.1147C514.313 28.3083 514.558 25.7559 513.135 24.3318C511.713 22.9092 509.159 23.154 506.352 25.9605C505.526 26.7865 504.654 27.9999 503.848 29.3171C504.211 27.817 504.451 26.3417 504.451 25.1733C504.451 21.2045 502.819 19.2256 500.806 19.2256C498.793 19.2256 497.161 21.2045 497.161 25.1733C497.161 26.3417 497.403 27.817 497.764 29.3171C496.958 27.9999 496.086 26.7865 495.26 25.9605C492.453 23.154 489.901 22.9092 488.477 24.3318C487.054 25.7544 487.299 28.3083 490.105 31.1147C490.931 31.9407 492.145 32.8132 493.462 33.619C491.962 33.2564 490.487 33.0162 489.318 33.0162C485.352 33.0162 483.374 34.648 483.374 36.661C483.374 38.6741 485.352 40.3059 489.321 40.3059C490.49 40.3059 491.965 40.0641 493.465 39.7031C492.148 40.5089 490.934 41.3814 490.108 42.2073C487.302 45.0138 487.057 47.5661 488.48 48.9903C489.902 50.4129 492.456 50.168 495.263 47.3616C496.089 46.5356 496.961 45.3222 497.767 44.005C497.404 45.5051 497.164 46.9804 497.164 48.1488C497.164 52.1175 498.796 54.0965 500.809 54.0965C502.822 54.0965 504.454 52.1175 504.454 48.1488C504.454 46.9804 504.212 45.5051 503.851 44.005C504.657 45.3222 505.529 46.5356 506.355 47.3616C509.162 50.168 511.714 50.4129 513.138 48.9903C514.561 47.5677 514.316 45.0138 511.51 42.2073C510.684 41.3814 509.47 40.5089 508.153 39.7031C509.653 40.0657 511.128 40.3059 512.297 40.3059C516.265 40.3059 518.244 38.6741 518.244 36.661H518.241Z" fill="white"/>
<circle cx="437.187" cy="36.661" r="31.3994" stroke="white" stroke-width="2.49015"/>
<path d="M454.469 34.7408C454.469 44.2856 446.731 52.0232 437.186 52.0232C427.641 52.0232 419.904 44.2856 419.904 34.7408" stroke="white" stroke-width="2.49015"/>
<circle cx="427.105" cy="26.5796" r="3.36047" fill="white"/>
<circle cx="447.268" cy="26.5796" r="3.36047" fill="white"/>
</svg>
